 <svg
          xmlns="http://www.w3.org/2000/svg"
          version="1.0"
          viewBox="0 0 800.000000 500"
          preserveAspectRatio="xMidYMid meet"
          width="35"
          height="40"
        >
          <g
            transform="translate(0.000000,800.000000) scale(0.100000,-0.1000)"
            fill="#000000"
            stroke="none"
          >
            <path
              d="M2410 7404 c-25 -2 -102 -9 -173 -14 -237 -20 -795 -108 -820 -130 -5 -4 15 -13 45 -20 29 -7 107 -28 173 -47 757 -217 1423 -521 1945 -887 255 -179 569 -471 744 -691 360 -454 627 -972 765 -1480 40 -150 79 -354 86 -456 4 -46 8 -94 11 -107 l5 -23 1117 7 c614 3 1119 8 1121 10 8 7 -106 339 -154 449 -8 17 -37 86 -66 155 -29 69 -105 229 -169 355 -489 968 -1173 1745 -1958 2225 -569 347 -1197 561 -1882 641 -86 10 -706 20 -790 13z"
            />
            <path
              d="M2540 6133 c-222 -24 -454 -112 -630 -239 -105 -75 -251 -227 -323 -335 -297 -447 -287 -1036 23 -1471 75 -105 229 -256 326 -321 142 -94 291 -158 459 -198 132 -31 392 -34 525 -5 381 82 709 322 883 646 155 289 192 692 91 1012 -54 171 -160 354 -284 491 -258 283 -707 459 -1070 420z"
              fill="#ed1e24"
              data-v-inspector="src/views/LoginView.vue:12:5"
            ></path>
          </g>
        </svg>