<svg
            xmlns="http://www.w3.org/2000/svg"
            version="1.0"
            viewBox="0 0 2200.000000 500"
            preserveAspectRatio="xMidYMid meet"
            class="dark:bg-gray-200 dark:rounded-lg"
            fill="#1b4b5f"
          >
            <g
              transform="translate(0.000000,800.000000) scale(0.100000,-0.1000)"
              fill="#000000"
              stroke="none"
            >
              <path
                d="M2410 7404 c-25 -2 -102 -9 -173 -14 -237 -20 -795 -108 -820 -130 -5 -4 15 -13 45 -20 29 -7 107 -28 173 -47 757 -217 1423 -521 1945 -887 255 -179 569 -471 744 -691 360 -454 627 -972 765 -1480 40 -150 79 -354 86 -456 4 -46 8 -94 11 -107 l5 -23 1117 7 c614 3 1119 8 1121 10 8 7 -106 339 -154 449 -8 17 -37 86 -66 155 -29 69 -105 229 -169 355 -489 968 -1173 1745 -1958 2225 -569 347 -1197 561 -1882 641 -86 10 -706 20 -790 13z"
              />
              <path
                d="M8931 7353 c-5 -10 -26 -58 -46 -108 -21 -49 -48 -112 -60 -140 -13 -27 -42 -95 -65 -150 -39 -93 -61 -144 -95 -220 -7 -16 -54 -127 -105 -245 -51 -118 -100 -233 -110 -255 -10 -22 -37 -85 -60 -140 -23 -55 -50 -118 -60 -140 -10 -22 -86 -200 -170 -395 -84 -195 -161 -374 -171 -396 -69 -155 -118 -279 -111 -286 5 -5 71 -7 147 -6 110 2 140 6 146 18 11 19 36 77 149 340 86 200 111 259 145 335 7 17 23 54 35 83 l22 52 565 0 564 0 20 -47 c12 -27 27 -61 34 -78 7 -16 32 -75 55 -130 23 -55 50 -118 60 -140 10 -22 46 -105 80 -185 33 -80 72 -169 85 -197 l25 -53 139 0 c77 0 142 4 146 9 4 8 -64 181 -130 326 -7 17 -25 59 -40 95 -15 36 -36 83 -46 105 -10 22 -66 153 -124 290 -59 138 -116 270 -127 295 -11 25 -25 59 -33 75 -7 17 -43 102 -80 190 -37 88 -80 188 -96 223 -16 35 -29 65 -29 67 0 3 -11 28 -24 57 -13 29 -49 112 -79 183 -30 72 -64 151 -75 175 -11 25 -37 86 -57 135 -21 50 -46 108 -56 130 -10 22 -27 63 -37 90 l-20 50 -150 3 c-136 2 -152 1 -161 -15z m175 -365 c4 -13 17 -45 29 -73 13 -27 74 -171 135 -320 62 -148 123 -292 135 -320 43 -93 125 -295 125 -305 0 -7 -150 -10 -445 -10 -454 0 -468 1 -436 35 4 6 34 73 66 150 32 77 68 163 80 190 13 28 53 122 90 210 37 88 75 178 85 200 10 22 39 91 65 153 26 61 51 112 55 112 5 0 12 -10 16 -22z"
              />
              <path
                d="M10636 7354 c-3 -9 -6 -566 -6 -1239 0 -1032 2 -1224 14 -1234 9 -8 55 -11 137 -9 l124 3 3 1123 2 1122 226 0 c369 0 555 -25 663 -88 25 -14 76 -56 112 -93 242 -241 196 -635 -95 -817 -127 -80 -184 -92 -461 -101 -191 -5 -210 -8 -210 -23 0 -10 187 -268 415 -573 l415 -555 165 2 c143 3 165 5 164 19 -1 9 -57 90 -126 180 -68 90 -209 277 -313 414 -103 138 -197 260 -208 272 -11 13 -18 25 -16 28 3 2 38 9 79 16 168 26 295 94 414 220 121 128 181 258 207 447 10 75 10 109 0 185 -49 350 -254 581 -596 670 -158 41 -243 47 -686 47 -371 0 -418 -2 -423 -16z"
              />
              <path
                d="M12670 6120 l0 -1251 513 3 c555 4 572 6 757 68 225 76 465 251 607 445 223 301 292 715 182 1089 -57 193 -162 369 -309 517 -157 158 -325 255 -535 309 -246 63 -244 63 -747 67 l-468 4 0 -1251z m936 981 c160 -12 244 -31 349 -81 149 -71 273 -183 379 -343 140 -210 193 -464 152 -717 -59 -358 -313 -656 -659 -774 -25 -8 -91 -24 -147 -36 -90 -18 -140 -20 -421 -20 l-319 0 0 988 c0 544 3 992 8 996 9 10 474 0 658 -13z"
              />
              <path
                d="M15142 6123 l3 -1248 685 0 685 0 3 114 c2 75 -1 118 -9 127 -10 12 -102 14 -550 14 l-539 0 0 435 0 435 523 0 c393 0 526 3 535 12 8 8 12 49 12 118 0 69 -4 110 -12 118 -9 9 -142 12 -535 12 l-523 0 2 428 3 427 545 5 545 5 0 120 0 120 -688 3 -687 2 2 -1247z"
              />
              <path
                d="M16895 7358 c-3 -7 -4 -569 -3 -1248 l3 -1235 130 0 130 0 3 1058 c1 581 5 1057 10 1057 9 -1 11 -4 147 -205 60 -88 145 -214 190 -280 45 -66 135 -199 200 -295 65 -96 164 -242 220 -325 188 -276 392 -578 540 -798 l147 -218 132 3 131 3 0 1245 0 1245 -132 3 c-131 3 -133 2 -138 -20 -3 -13 -4 -461 -3 -996 2 -643 0 -972 -7 -972 -5 0 -92 123 -192 273 -100 150 -233 346 -294 437 -61 91 -256 379 -433 640 -176 261 -345 512 -375 558 l-54 82 -174 0 c-130 0 -175 -3 -178 -12z"
              />
              <path
                d="M19234 7357 c-2 -7 -3 -62 -2 -123 l3 -109 282 -3 283 -2 2 -1123 3 -1122 133 -3 c72 -1 133 -1 134 0 2 2 5 507 8 1123 l5 1120 275 5 275 5 0 120 0 120 -698 3 c-571 2 -698 0 -703 -11z"
              />
              <path
                d="M2540 6133 c-222 -24 -454 -112 -630 -239 -105 -75 -251 -227 -323 -335 -297 -447 -287 -1036 23 -1471 75 -105 229 -256 326 -321 142 -94 291 -158 459 -198 132 -31 392 -34 525 -5 381 82 709 322 883 646 155 289 192 692 91 1012 -54 171 -160 354 -284 491 -258 283 -707 459 -1070 420z"
                fill="#ed1e24"
              />
              <path
                d="M12890 4589 c-93 -16 -193 -70 -269 -146 -105 -108 -151 -216 -151 -358 0 -137 45 -249 140 -345 110 -113 219 -160 370 -160 52 0 115 5 140 11 82 19 172 71 240 139 105 105 150 213 150 360 0 138 -40 237 -138 341 -124 132 -295 188 -482 158z m182 -90 c222 -47 377 -263 341 -476 -24 -137 -114 -256 -240 -316 -64 -30 -74 -32 -183 -32 -111 0 -118 1 -183 34 -266 130 -324 461 -117 670 105 106 243 149 382 120z"
                fill="#ed1e24"
              />
              <path
                xmlns="http://www.w3.org/2000/svg"
                d="M16257 4590 c-20 -6 -54 -18 -75 -29 -171 -88 -178 -356 -10 -442 22 -11 89 -35 150 -54 65 -20 120 -42 135 -57 126 -118 59 -322 -111 -336 -63 -5 -115 10 -158 46 -33 28 -67 93 -68 130 0 21 -4 23 -52 20 l-53 -3 3 -40 c8 -91 95 -197 189 -229 60 -20 166 -20 226 0 63 21 130 83 163 150 24 48 26 63 22 132 -5 90 -22 127 -83 187 -36 34 -61 48 -132 70 -48 14 -109 33 -136 42 -91 28 -140 109 -117 195 24 87 79 131 165 131 88 0 165 -59 181 -141 6 -31 8 -32 56 -32 l50 0 -7 43 c-10 57 -18 75 -53 123 -54 74 -187 118 -285 94z"
                fill="#ed1e24"
              />
              <path
                d="M19870 4589 c-125 -20 -278 -128 -345 -243 -61 -105 -82 -267 -50 -391 38 -142 142 -266 282 -333 78 -37 78 -37 208 -37 148 0 196 14 306 87 55 37 149 144 149 169 0 5 -21 9 -47 9 -43 0 -51 -4 -109 -60 -36 -34 -88 -72 -121 -88 -52 -24 -70 -27 -168 -27 -104 0 -114 2 -176 32 -80 40 -169 130 -205 208 -73 159 -40 339 86 465 166 166 425 166 592 -1 45 -45 52 -49 98 -49 28 0 50 4 50 9 0 19 -82 112 -133 150 -120 91 -262 125 -417 100z"
                fill="#ed1e24"
              />
              <path
                d="M7862 4088 l3 -493 48 -3 47 -3 0 431 c0 253 4 429 9 426 5 -3 139 -197 297 -431 l288 -425 48 0 48 0 0 495 0 495 -50 0 -50 0 -2 -406 -3 -406 -274 406 -274 406 -69 0 -68 0 2 -492z"
                fill="#ed1e24"
              />
              <path
                d="M9128 4085 l2 -495 265 0 265 0 0 45 0 45 -220 0 -220 0 0 185 0 185 215 0 215 0 0 40 0 40 -212 2 -213 3 -3 178 -2 177 220 0 220 0 0 45 0 45 -267 0 -268 0 3 -495z"
                fill="#ed1e24"
              />
              <path
                d="M10020 4535 l0 -45 115 0 115 0 0 -451 0 -450 48 3 47 3 3 448 2 447 110 0 110 0 0 45 0 45 -275 0 -275 0 0 -45z"
                fill="#ed1e24"
              />
              <path
                d="M10875 4553 c3 -16 66 -237 138 -493 l133 -465 64 -3 65 -3 103 388 c121 455 111 425 123 395 7 -17 86 -311 200 -744 l10 -38 64 0 64 0 25 83 c13 45 37 125 51 177 15 52 67 236 116 409 49 172 89 315 89 317 0 2 -22 4 -49 4 l-49 0 -14 -47 c-8 -27 -61 -216 -118 -420 -58 -205 -108 -373 -111 -373 -4 0 -11 17 -17 38 -5 20 -45 163 -87 317 -43 154 -90 325 -105 380 l-27 100 -48 0 -48 0 -57 -205 c-31 -113 -83 -301 -115 -417 -32 -117 -61 -213 -65 -213 -3 0 -53 165 -109 368 -57 202 -109 391 -118 420 l-14 52 -51 0 c-49 0 -50 0 -43 -27z"
                fill="#ed1e24"
              />
              <path
                d="M13942 4088 l3 -493 48 -3 47 -3 0 451 c0 410 1 451 17 457 9 3 80 2 157 -4 190 -13 238 -38 287 -147 43 -99 1 -212 -101 -270 -48 -27 -66 -31 -152 -34 -54 -3 -98 -6 -98 -8 0 -3 74 -103 165 -224 l165 -220 61 0 61 0 -24 33 c-13 17 -75 99 -137 181 -61 82 -111 150 -109 151 2 1 26 8 53 14 145 35 224 140 225 296 0 163 -89 268 -258 304 -29 6 -134 11 -233 11 l-179 0 2 -492z"
                fill="#ed1e24"
              />
              <path
                d="M15030 4085 l0 -495 45 0 45 0 0 134 0 134 39 49 c21 26 52 63 67 81 l29 33 165 -215 165 -215 58 -1 c31 0 57 3 57 8 0 4 -86 117 -190 252 -104 135 -190 247 -190 250 0 3 86 110 190 238 105 129 190 236 190 238 0 2 -26 4 -59 4 l-59 0 -99 -122 c-54 -68 -154 -191 -221 -275 -68 -84 -127 -155 -132 -158 -6 -4 -10 98 -10 274 l0 281 -45 0 -45 0 0 -495z"
                fill="#ed1e24"
              />
              <path
                d="M17670 4085 l0 -495 45 0 45 0 0 495 0 495 -45 0 -45 0 0 -495z"
                fill="#ed1e24"
              />
              <path
                d="M18240 4084 l0 -495 48 3 47 3 0 428 c0 235 3 427 6 427 3 0 124 -176 270 -391 145 -215 276 -409 292 -430 25 -35 31 -39 72 -39 l45 0 0 495 0 495 -45 0 -45 0 0 -407 -1 -408 -26 33 c-14 18 -135 194 -268 392 -133 197 -248 366 -255 375 -9 11 -31 15 -76 15 l-64 0 0 -496z"
                fill="#ed1e24"
              />
              <path
                d="M20894 3747 c-3 -8 -4 -45 -2 -83 l3 -69 48 -3 47 -3 0 85 0 86 -45 0 c-29 0 -48 -5 -51 -13z"
                fill="#ed1e24"
              />
              <path
                d="M16740 3693 c0 -5 -13 -56 -29 -115 l-29 -108 35 0 c29 0 36 5 48 33 7 17 29 69 49 115 l35 82 -54 0 c-30 0 -55 -3 -55 -7z"
                fill="#ed1e24"
              />
            </g>
          </svg>